<svg width="36" height="20" viewBox="0 0 36 20" fill="none" xmlns="http://www.w3.org/2000/svg">
<path d="M34.9412 4.11773C33.6706 4.47067 32.4 4.58832 30.9177 4.70597C32.4 4.23538 33.4588 3.5295 33.8824 2.58832C32.6118 3.05891 31.1294 3.2942 29.4353 3.5295C28.1647 2.82362 26.2588 2.35303 24.353 2.35303C20.753 2.35303 17.5765 4.11773 17.5765 6.23538C17.5765 6.58832 17.5765 6.82362 17.7882 7.05891C12.0706 6.94126 6.77649 5.41185 3.38825 3.05891C2.75296 3.64714 2.54119 4.23538 2.54119 5.05891C2.54119 6.35303 3.81178 7.5295 5.71766 8.23538C4.65884 8.23538 3.60001 8.00009 2.54119 7.76479C2.54119 9.64715 4.8706 11.1766 8.04707 11.5295C7.41178 11.6471 6.77649 11.6471 6.14119 11.6471C5.71766 11.6471 5.29413 11.6471 4.8706 11.5295C5.71766 13.0589 8.25884 14.2354 11.4353 14.2354C9.1059 15.2942 6.14119 15.8824 2.75296 15.8824C2.11766 15.8824 1.69413 15.8824 1.05884 15.8824C4.23531 16.9413 7.83531 17.6471 11.6471 17.6471C24.353 17.6471 31.3412 11.7648 31.3412 6.70597C31.3412 6.58832 31.3412 6.35303 31.3412 6.23538C32.8235 5.64715 34.0941 4.94126 34.9412 4.11773Z" fill="#E5ECEC"/>
</svg>
